<mxfile host="Electron" modified="2023-11-22T12:35:25.608Z" agent="Mozilla/5.0 (Windows NT 10.0; Win64; x64) AppleWebKit/537.36 (KHTML, like Gecko) draw.io/22.1.2 Chrome/114.0.5735.289 Electron/25.9.4 Safari/537.36" etag="6e2JQW399hpaRtjyqcmg" version="22.1.2" type="device">
  <diagram name="Page-1" id="H2SVQT624Hmv7JR_Z6Ny">
    <mxGraphModel dx="965" dy="552" grid="1" gridSize="10" guides="1" tooltips="1" connect="1" arrows="1" fold="1" page="1" pageScale="1" pageWidth="1800" pageHeight="1200" math="0" shadow="0">
      <root>
        <mxCell id="0" />
        <mxCell id="1" parent="0" />
        <mxCell id="JFPYzIQxTyuuC8vWeNzA-20" value="" style="rounded=0;whiteSpace=wrap;html=1;fillColor=none;dashed=1;fontColor=#ffffff;strokeColor=#3333FF;" vertex="1" parent="1">
          <mxGeometry x="540" y="290" width="120" height="230" as="geometry" />
        </mxCell>
        <mxCell id="JFPYzIQxTyuuC8vWeNzA-1" value="" style="rounded=0;whiteSpace=wrap;html=1;fillColor=none;dashed=1;fontColor=#ffffff;strokeColor=#3333FF;" vertex="1" parent="1">
          <mxGeometry x="70" y="50" width="120" height="470" as="geometry" />
        </mxCell>
        <mxCell id="JFPYzIQxTyuuC8vWeNzA-2" value="Data Sources" style="text;html=1;strokeColor=none;fillColor=none;align=center;verticalAlign=middle;whiteSpace=wrap;rounded=0;" vertex="1" parent="1">
          <mxGeometry x="70" y="20" width="110" height="30" as="geometry" />
        </mxCell>
        <mxCell id="JFPYzIQxTyuuC8vWeNzA-4" value="" style="shape=cylinder3;whiteSpace=wrap;html=1;boundedLbl=1;backgroundOutline=1;size=15;" vertex="1" parent="1">
          <mxGeometry x="106.25" y="60" width="43.75" height="50" as="geometry" />
        </mxCell>
        <mxCell id="JFPYzIQxTyuuC8vWeNzA-6" value="Database" style="text;html=1;strokeColor=none;fillColor=none;align=center;verticalAlign=middle;whiteSpace=wrap;rounded=0;" vertex="1" parent="1">
          <mxGeometry x="98.13" y="110" width="60" height="30" as="geometry" />
        </mxCell>
        <mxCell id="JFPYzIQxTyuuC8vWeNzA-7" value="events" style="text;html=1;strokeColor=none;fillColor=none;align=center;verticalAlign=middle;whiteSpace=wrap;rounded=0;" vertex="1" parent="1">
          <mxGeometry x="100" y="190" width="60" height="30" as="geometry" />
        </mxCell>
        <mxCell id="JFPYzIQxTyuuC8vWeNzA-8" value="" style="shape=cylinder3;whiteSpace=wrap;html=1;boundedLbl=1;backgroundOutline=1;size=15;rotation=90;" vertex="1" parent="1">
          <mxGeometry x="107.2" y="130.93" width="41.87" height="80" as="geometry" />
        </mxCell>
        <mxCell id="JFPYzIQxTyuuC8vWeNzA-9" value="" style="rounded=0;whiteSpace=wrap;html=1;fillColor=none;dashed=1;fontColor=#ffffff;strokeColor=#3333FF;" vertex="1" parent="1">
          <mxGeometry x="220" y="50" width="120" height="470" as="geometry" />
        </mxCell>
        <mxCell id="JFPYzIQxTyuuC8vWeNzA-10" value="Data Ingestion" style="text;html=1;strokeColor=none;fillColor=none;align=center;verticalAlign=middle;whiteSpace=wrap;rounded=0;" vertex="1" parent="1">
          <mxGeometry x="220" y="20" width="110" height="30" as="geometry" />
        </mxCell>
        <mxCell id="JFPYzIQxTyuuC8vWeNzA-11" value="" style="rounded=0;whiteSpace=wrap;html=1;fillColor=none;dashed=1;fontColor=#ffffff;strokeColor=#3333FF;" vertex="1" parent="1">
          <mxGeometry x="380" y="50" width="120" height="200" as="geometry" />
        </mxCell>
        <mxCell id="JFPYzIQxTyuuC8vWeNzA-12" style="edgeStyle=orthogonalEdgeStyle;rounded=0;orthogonalLoop=1;jettySize=auto;html=1;exitX=0.5;exitY=1;exitDx=0;exitDy=0;" edge="1" parent="1" source="JFPYzIQxTyuuC8vWeNzA-11" target="JFPYzIQxTyuuC8vWeNzA-11">
          <mxGeometry relative="1" as="geometry" />
        </mxCell>
        <mxCell id="JFPYzIQxTyuuC8vWeNzA-13" value="" style="rounded=0;whiteSpace=wrap;html=1;fillColor=none;dashed=1;fontColor=#ffffff;strokeColor=#3333FF;" vertex="1" parent="1">
          <mxGeometry x="380" y="290" width="120" height="230" as="geometry" />
        </mxCell>
        <mxCell id="JFPYzIQxTyuuC8vWeNzA-14" value="Databrew" style="sketch=0;points=[[0,0,0],[0.25,0,0],[0.5,0,0],[0.75,0,0],[1,0,0],[0,1,0],[0.25,1,0],[0.5,1,0],[0.75,1,0],[1,1,0],[0,0.25,0],[0,0.5,0],[0,0.75,0],[1,0.25,0],[1,0.5,0],[1,0.75,0]];outlineConnect=0;fontColor=#232F3E;fillColor=#8C4FFF;strokeColor=#ffffff;dashed=0;verticalLabelPosition=bottom;verticalAlign=top;align=center;html=1;fontSize=12;fontStyle=0;aspect=fixed;shape=mxgraph.aws4.resourceIcon;resIcon=mxgraph.aws4.glue_databrew;" vertex="1" parent="1">
          <mxGeometry x="416" y="310" width="40" height="40" as="geometry" />
        </mxCell>
        <mxCell id="JFPYzIQxTyuuC8vWeNzA-15" value="Glue" style="sketch=0;points=[[0,0,0],[0.25,0,0],[0.5,0,0],[0.75,0,0],[1,0,0],[0,1,0],[0.25,1,0],[0.5,1,0],[0.75,1,0],[1,1,0],[0,0.25,0],[0,0.5,0],[0,0.75,0],[1,0.25,0],[1,0.5,0],[1,0.75,0]];outlineConnect=0;fontColor=#232F3E;fillColor=#8C4FFF;strokeColor=#ffffff;dashed=0;verticalLabelPosition=bottom;verticalAlign=top;align=center;html=1;fontSize=12;fontStyle=0;aspect=fixed;shape=mxgraph.aws4.resourceIcon;resIcon=mxgraph.aws4.glue;" vertex="1" parent="1">
          <mxGeometry x="412" y="380" width="48" height="48" as="geometry" />
        </mxCell>
        <mxCell id="JFPYzIQxTyuuC8vWeNzA-16" value="" style="sketch=0;points=[[0,0,0],[0.25,0,0],[0.5,0,0],[0.75,0,0],[1,0,0],[0,1,0],[0.25,1,0],[0.5,1,0],[0.75,1,0],[1,1,0],[0,0.25,0],[0,0.5,0],[0,0.75,0],[1,0.25,0],[1,0.5,0],[1,0.75,0]];outlineConnect=0;fontColor=#232F3E;fillColor=#7AA116;strokeColor=#ffffff;dashed=0;verticalLabelPosition=bottom;verticalAlign=top;align=center;html=1;fontSize=12;fontStyle=0;aspect=fixed;shape=mxgraph.aws4.resourceIcon;resIcon=mxgraph.aws4.s3;" vertex="1" parent="1">
          <mxGeometry x="412" y="450" width="50" height="50" as="geometry" />
        </mxCell>
        <mxCell id="JFPYzIQxTyuuC8vWeNzA-17" value="" style="sketch=0;points=[[0,0,0],[0.25,0,0],[0.5,0,0],[0.75,0,0],[1,0,0],[0,1,0],[0.25,1,0],[0.5,1,0],[0.75,1,0],[1,1,0],[0,0.25,0],[0,0.5,0],[0,0.75,0],[1,0.25,0],[1,0.5,0],[1,0.75,0]];outlineConnect=0;fontColor=#232F3E;fillColor=#7AA116;strokeColor=#ffffff;dashed=0;verticalLabelPosition=bottom;verticalAlign=top;align=center;html=1;fontSize=12;fontStyle=0;aspect=fixed;shape=mxgraph.aws4.resourceIcon;resIcon=mxgraph.aws4.s3;" vertex="1" parent="1">
          <mxGeometry x="412" y="80" width="40" height="40" as="geometry" />
        </mxCell>
        <mxCell id="JFPYzIQxTyuuC8vWeNzA-18" value="" style="rounded=0;whiteSpace=wrap;html=1;fillColor=none;dashed=1;fontColor=#ffffff;strokeColor=#3333FF;" vertex="1" parent="1">
          <mxGeometry x="530" y="50" width="280" height="200" as="geometry" />
        </mxCell>
        <mxCell id="JFPYzIQxTyuuC8vWeNzA-19" value="Identity Resolution" style="text;html=1;strokeColor=none;fillColor=none;align=center;verticalAlign=middle;whiteSpace=wrap;rounded=0;" vertex="1" parent="1">
          <mxGeometry x="545" y="260" width="110" height="30" as="geometry" />
        </mxCell>
        <mxCell id="JFPYzIQxTyuuC8vWeNzA-21" value="" style="sketch=0;points=[[0,0,0],[0.25,0,0],[0.5,0,0],[0.75,0,0],[1,0,0],[0,1,0],[0.25,1,0],[0.5,1,0],[0.75,1,0],[1,1,0],[0,0.25,0],[0,0.5,0],[0,0.75,0],[1,0.25,0],[1,0.5,0],[1,0.75,0]];outlineConnect=0;fontColor=#232F3E;fillColor=#8C4FFF;strokeColor=#ffffff;dashed=0;verticalLabelPosition=bottom;verticalAlign=top;align=center;html=1;fontSize=12;fontStyle=0;aspect=fixed;shape=mxgraph.aws4.resourceIcon;resIcon=mxgraph.aws4.lake_formation;" vertex="1" parent="1">
          <mxGeometry x="411.54" y="160" width="40.93" height="40.93" as="geometry" />
        </mxCell>
        <mxCell id="JFPYzIQxTyuuC8vWeNzA-24" value="Lake Formation" style="text;html=1;strokeColor=none;fillColor=none;align=center;verticalAlign=middle;whiteSpace=wrap;rounded=0;" vertex="1" parent="1">
          <mxGeometry x="385" y="200.93" width="110" height="30" as="geometry" />
        </mxCell>
        <mxCell id="JFPYzIQxTyuuC8vWeNzA-25" value="" style="sketch=0;points=[[0,0,0],[0.25,0,0],[0.5,0,0],[0.75,0,0],[1,0,0],[0,1,0],[0.25,1,0],[0.5,1,0],[0.75,1,0],[1,1,0],[0,0.25,0],[0,0.5,0],[0,0.75,0],[1,0.25,0],[1,0.5,0],[1,0.75,0]];outlineConnect=0;fontColor=#232F3E;fillColor=#8C4FFF;strokeColor=#ffffff;dashed=0;verticalLabelPosition=bottom;verticalAlign=top;align=center;html=1;fontSize=12;fontStyle=0;aspect=fixed;shape=mxgraph.aws4.resourceIcon;resIcon=mxgraph.aws4.emr;" vertex="1" parent="1">
          <mxGeometry x="576" y="302" width="48" height="48" as="geometry" />
        </mxCell>
        <mxCell id="JFPYzIQxTyuuC8vWeNzA-28" value="Amazon Sagemaker&lt;br&gt;Probalistic" style="text;html=1;strokeColor=none;fillColor=none;align=center;verticalAlign=middle;whiteSpace=wrap;rounded=0;" vertex="1" parent="1">
          <mxGeometry x="555" y="450" width="110" height="30" as="geometry" />
        </mxCell>
        <mxCell id="JFPYzIQxTyuuC8vWeNzA-29" value="" style="sketch=0;points=[[0,0,0],[0.25,0,0],[0.5,0,0],[0.75,0,0],[1,0,0],[0,1,0],[0.25,1,0],[0.5,1,0],[0.75,1,0],[1,1,0],[0,0.25,0],[0,0.5,0],[0,0.75,0],[1,0.25,0],[1,0.5,0],[1,0.75,0]];outlineConnect=0;fontColor=#232F3E;fillColor=#01A88D;strokeColor=#ffffff;dashed=0;verticalLabelPosition=bottom;verticalAlign=top;align=center;html=1;fontSize=12;fontStyle=0;aspect=fixed;shape=mxgraph.aws4.resourceIcon;resIcon=mxgraph.aws4.sagemaker;" vertex="1" parent="1">
          <mxGeometry x="576" y="390" width="50" height="50" as="geometry" />
        </mxCell>
        <mxCell id="JFPYzIQxTyuuC8vWeNzA-30" value="Amazon EMR&amp;nbsp;&lt;br&gt;Deterministic" style="text;html=1;strokeColor=none;fillColor=none;align=center;verticalAlign=middle;whiteSpace=wrap;rounded=0;" vertex="1" parent="1">
          <mxGeometry x="555" y="360" width="110" height="30" as="geometry" />
        </mxCell>
        <mxCell id="JFPYzIQxTyuuC8vWeNzA-32" value="&lt;font color=&quot;#000000&quot;&gt;Neptune Identity Resoltuion&lt;/font&gt;" style="sketch=0;points=[[0,0,0],[0.25,0,0],[0.5,0,0],[0.75,0,0],[1,0,0],[0,1,0],[0.25,1,0],[0.5,1,0],[0.75,1,0],[1,1,0],[0,0.25,0],[0,0.5,0],[0,0.75,0],[1,0.25,0],[1,0.5,0],[1,0.75,0]];outlineConnect=0;fontColor=#ffffff;fillColor=#0050ef;strokeColor=#FFFFFF;dashed=0;verticalLabelPosition=bottom;verticalAlign=top;align=center;html=1;fontSize=12;fontStyle=0;aspect=fixed;shape=mxgraph.aws4.resourceIcon;resIcon=mxgraph.aws4.neptune;" vertex="1" parent="1">
          <mxGeometry x="600" y="170.93" width="40" height="40" as="geometry" />
        </mxCell>
        <mxCell id="JFPYzIQxTyuuC8vWeNzA-34" value="Opensearch" style="outlineConnect=0;dashed=0;verticalLabelPosition=bottom;verticalAlign=top;align=center;html=1;shape=mxgraph.aws3.elasticsearch_service;fillColor=#F58534;gradientColor=none;" vertex="1" parent="1">
          <mxGeometry x="730" y="166.4" width="40" height="49.07" as="geometry" />
        </mxCell>
        <mxCell id="JFPYzIQxTyuuC8vWeNzA-35" value="Text" style="text;html=1;strokeColor=none;fillColor=none;align=center;verticalAlign=middle;whiteSpace=wrap;rounded=0;" vertex="1" parent="1">
          <mxGeometry x="380" y="270" width="60" height="30" as="geometry" />
        </mxCell>
      </root>
    </mxGraphModel>
  </diagram>
</mxfile>
